<svg xmlns:dc="http://purl.org/dc/elements/1.1/" xmlns:cc="http://creativecommons.org/ns#" xmlns:rdf="http://www.w3.org/1999/02/22-rdf-syntax-ns#" xmlns:svg="http://www.w3.org/2000/svg" xmlns="http://www.w3.org/2000/svg" viewBox="0 0 336.57333 335.32001"
    height="335.32001" width="336.57333" xml:space="preserve" id="svg2" version="1.1" class="img--svg tobacco-free replaced-svg">
    <metadata id="metadata8">
        <rdf:RDF>
            <cc:Work rdf:about="">
                <dc:format>image/svg+xml</dc:format>
                <dc:type rdf:resource="http://purl.org/dc/dcmitype/StillImage"></dc:type>
            </cc:Work>
        </rdf:RDF>
    </metadata>
    <defs id="defs6"></defs>
    <g transform="matrix(1.3333333,0,0,-1.3333333,0,335.32)" id="g10">
        <g transform="scale(0.1)" id="g12">
            <path id="path14" style="fill:#22356b;fill-opacity:1;fill-rule:nonzero;stroke:none"
                d="M 1656.97,1089.3 H 623.68 v 224.08 H 1656.97 V 1089.3"></path>
            <path id="path16" style="fill:#22356b;fill-opacity:1;fill-rule:nonzero;stroke:none"
                d="m 1777.31,1089.3 h -71.23 v 224.08 h 71.23 V 1089.3"></path>
            <path id="path18" style="fill:#22356b;fill-opacity:1;fill-rule:nonzero;stroke:none"
                d="m 1905.96,1089.3 h -71.23 v 224.08 h 71.23 V 1089.3"></path>
            <path id="path20" style="fill:#22356b;fill-opacity:1;fill-rule:nonzero;stroke:none"
                d="m 1777.31,1366.28 h -71.23 l -312.69,383.64 h 71.22 l 312.7,-383.64"></path>
            <path id="path22" style="fill:#22356b;fill-opacity:1;fill-rule:nonzero;stroke:none"
                d="m 1905.96,1366.28 h -71.23 l -312.7,383.64 h 71.22 l 312.71,-383.64"></path>
            <path id="path24" style="fill:#6ac7ed;fill-opacity:1;fill-rule:nonzero;stroke:none"
                d="m 486.527,1267.69 c 0,156.73 47.043,302.43 127.614,423.95 L 1678.81,626.969 c -121.53,-80.559 -267.22,-127.61 -423.95,-127.61 -424.337,0 -768.333,344 -768.333,768.331 z m 1536.653,0 c 0,-190.28 -69.31,-364.26 -183.88,-498.46 L 756.391,1852.13 c 134.199,114.57 308.189,183.89 498.469,183.89 424.33,0 768.32,-343.99 768.32,-768.33 z m -768.32,975.1 c -538.536,0 -975.106,-436.56 -975.106,-975.1 0,-538.53 436.57,-975.1 975.106,-975.1 538.53,0 975.09,436.57 975.09,975.1 0,538.54 -436.56,975.1 -975.09,975.1">
            </path>
            <path id="path26" style="fill:#22356b;fill-opacity:1;fill-rule:nonzero;stroke:none"
                d="m 308.406,1870.91 c -0.453,2.44 0,4.27 1.129,5.91 1.242,1.8 3.219,3.12 5.488,3.69 12.321,3.53 21.133,8.96 25.997,16.03 7.242,10.52 7.472,22.11 -2.133,28.71 -25.016,17.24 -58.41,-44.47 -99.742,-16.01 -19.032,13.1 -24.747,38.94 -7.778,63.59 7.985,11.6 16.582,19.05 28.637,24.91 2.461,1.24 5.695,0.9 8.043,-0.73 1.094,-0.74 1.93,-1.85 2.461,-3.03 l 3.609,-7.55 c 1.356,-3.09 1.125,-6.14 -0.496,-8.49 -0.746,-1.08 -1.68,-2.04 -2.969,-2.76 -7.879,-4.47 -13.449,-9.44 -17.191,-14.89 -7.613,-11.05 -6.609,-21.62 1.73,-27.36 26.274,-18.11 57.504,45.1 99.735,16.02 21.39,-14.73 23.043,-43.38 6.691,-67.13 -9.484,-13.77 -21.027,-22.39 -41.246,-26.91 -2.262,-0.57 -4.879,-0.11 -6.875,1.26 -1.445,1.01 -2.523,2.55 -2.867,4.38 l -2.223,10.36">
            </path>
            <path id="path28" style="fill:#22356b;fill-opacity:1;fill-rule:nonzero;stroke:none"
                d="m 431.316,1976.5 c -2.882,-3.32 -8.152,-3.7 -11.484,-0.82 l -91.16,78.93 -27.363,-31.61 c -2.887,-3.33 -8.161,-3.7 -11.489,-0.82 l -6.816,5.89 c -3.328,2.89 -3.707,8.16 -0.828,11.5 l 72.441,83.67 c 2.883,3.32 8.16,3.71 11.485,0.82 l 6.824,-5.9 c 3.324,-2.89 3.703,-8.16 0.824,-11.48 l -27.363,-31.6 91.156,-78.93 c 3.328,-2.89 3.715,-8.16 0.828,-11.48 l -7.055,-8.17">
            </path>
            <path id="path30" style="fill:#22356b;fill-opacity:1;fill-rule:nonzero;stroke:none"
                d="m 464.176,2213.57 c -2.809,3.38 -2.324,8.66 1.054,11.46 l 8.282,6.88 c 3.386,2.82 8.652,2.34 11.465,-1.04 l 70.031,-84.21 c 15.754,-18.93 15.457,-37.49 -3.82,-53.52 -6.094,-5.07 -12.458,-8.08 -18.399,-9.87 -3.078,-1.13 -6.285,-0.36 -8.387,2.18 -0.711,0.84 -1.242,1.82 -1.609,2.95 l -2.746,7.44 c -1.406,3.41 -0.359,6.28 2.344,8.54 0.847,0.7 1.828,1.23 2.808,1.75 2.461,1.19 5.078,2.5 6.946,4.07 7.605,6.32 6.144,14.25 -0.879,22.71 l -67.09,80.66">
            </path>
            <path id="path32" style="fill:#22356b;fill-opacity:1;fill-rule:nonzero;stroke:none"
                d="m 599.77,2215.49 37.55,24.98 -49.015,33.18 z m 5.402,-26.79 7.035,-35.2 c 0.977,-3.85 -0.797,-7.93 -4.094,-10.13 l -6.593,-4.39 c -4.211,-2.79 -9.336,-1.46 -11.903,2.39 -0.488,0.74 -0.906,1.77 -1.152,2.93 l -27.656,145.67 c -0.786,3.98 0.988,8.06 4.285,10.24 l 8.793,5.84 c 3.297,2.21 7.742,2.26 11.101,0 l 123.633,-81.83 c 0.977,-0.68 1.774,-1.47 2.262,-2.2 2.555,-3.84 1.82,-9.09 -2.399,-11.9 l -7.879,-5.24 c -3.292,-2.18 -7.738,-2.24 -10.917,0.14 l -29.747,20.1 -54.769,-36.42">
            </path>
            <path id="path34" style="fill:#22356b;fill-opacity:1;fill-rule:nonzero;stroke:none"
                d="m 754.449,2243.79 c 1.836,-3.99 -0.008,-8.95 -4.004,-10.78 l -9.785,-4.49 c -4.012,-1.85 -8.961,0 -10.797,3.99 l -57.425,125.13 c -1.844,3.98 -0.008,8.94 3.992,10.78 l 11.39,5.22 c 3.606,1.66 8.317,1.4 11.891,-0.59 l 71.879,-40.08 14.465,79.73 c 0.625,3.9 3.504,7.65 7.097,9.29 l 9.797,4.49 c 4,1.85 8.953,0 10.789,-3.99 l 57.434,-125.11 c 1.84,-4 -0.004,-8.96 -4,-10.8 l -9.594,-4.39 c -4,-1.85 -8.957,-0.01 -10.785,3.99 l -43.035,93.74 -12.992,-68.16 c -0.953,-4.79 -3.524,-8.15 -6.918,-9.71 -3.403,-1.55 -7.825,-1.41 -12.082,1 l -60.078,33.88 42.761,-93.14">
            </path>
            <path id="path36" style="fill:#22356b;fill-opacity:1;fill-rule:nonzero;stroke:none"
                d="m 995.824,2334.47 c 1.246,-4.23 -1.273,-8.86 -5.492,-10.11 l -71.965,-21.29 c -4.226,-1.25 -8.867,1.29 -10.109,5.5 l -39.082,132.11 c -1.25,4.21 1.277,8.85 5.508,10.12 l 69.836,20.65 c 4.226,1.25 8.878,-1.27 10.128,-5.5 l 2.547,-8.66 c 1.25,-4.22 -1.269,-8.86 -5.492,-10.1 l -51.699,-15.3 10.855,-36.73 45.371,13.43 c 4.219,1.25 8.872,-1.29 10.118,-5.5 l 2.558,-8.66 c 1.246,-4.22 -1.269,-8.86 -5.496,-10.11 l -45.367,-13.42 11.293,-38.2 53.809,15.93 c 4.222,1.23 8.875,-1.29 10.121,-5.5 l 2.558,-8.66">
            </path>
            <path id="path38" style="fill:#22356b;fill-opacity:1;fill-rule:nonzero;stroke:none"
                d="m 1020.14,2367.52 c 1.42,2.05 3.02,3 4.98,3.36 2.16,0.39 4.48,-0.08 6.48,-1.29 11.2,-6.23 21.25,-8.66 29.69,-7.13 12.55,2.29 20.94,10.29 18.86,21.76 -5.43,29.86 -72.69,10.06 -81.65,59.39 -4.129,22.73 10.16,44.98 39.59,50.34 13.85,2.5 25.18,1.66 37.83,-2.76 2.62,-0.86 4.64,-3.4 5.15,-6.21 0.23,-1.31 0.04,-2.68 -0.41,-3.87 l -2.82,-7.89 c -1.22,-3.13 -3.54,-5.11 -6.35,-5.63 -1.3,-0.23 -2.64,-0.25 -4.05,0.16 -8.72,2.43 -16.17,2.88 -22.67,1.69 -13.2,-2.39 -19.99,-10.55 -18.18,-20.51 5.7,-31.37 72.49,-8.97 81.64,-59.39 4.64,-25.54 -14.51,-46.9 -42.85,-52.04 -16.45,-2.99 -30.69,-0.88 -48.14,10.25 -2.01,1.21 -3.52,3.38 -3.95,5.77 -0.32,1.73 0.02,3.59 1.07,5.11 l 5.78,8.89">
            </path>
            <path id="path40" style="fill:#22356b;fill-opacity:1;fill-rule:nonzero;stroke:none"
                d="m 1122.04,2474.26 c 2.57,4.91 3.56,10.33 2.98,15.78 -0.25,2.42 -0.91,4.56 -1.77,6.46 -0.63,1.7 -1.23,3.19 -1.36,4.5 -0.35,3.28 1.2,5.43 4.91,8.03 l 6.14,4.62 c 1.03,0.78 2.31,1.14 3.41,1.25 3.07,0.31 6.12,-1.35 7.22,-3.45 2.41,-3.94 4.02,-8.86 4.48,-13.24 1.65,-15.75 -4.66,-27.23 -11.85,-34.63 -1.18,-1.45 -3.51,-2.36 -5.7,-2.58 -2.19,-0.24 -4.67,0.16 -6.11,1.34 -2.18,1.76 -3.48,3.62 -3.73,6.02 -0.18,1.76 0.27,3.79 1.38,5.9">
            </path>
            <path id="path42" style="fill:#22356b;fill-opacity:1;fill-rule:nonzero;stroke:none"
                d="m 1188.63,2391.31 c 1.71,1.82 3.45,2.52 5.43,2.58 2.2,0.06 4.42,-0.75 6.23,-2.25 10.13,-7.84 19.71,-11.74 28.29,-11.48 12.75,0.36 22.24,7.03 21.9,18.67 -0.89,30.35 -70.38,20.84 -71.84,70.98 -0.68,23.1 16.79,42.97 46.7,43.85 14.08,0.4 25.15,-2.14 37,-8.39 2.45,-1.25 4.08,-4.06 4.16,-6.93 0.05,-1.31 -0.36,-2.64 -0.99,-3.76 l -3.96,-7.37 c -1.67,-2.91 -4.28,-4.53 -7.13,-4.62 -1.32,-0.03 -2.65,0.14 -3.99,0.77 -8.25,3.71 -15.56,5.26 -22.15,5.07 -13.41,-0.38 -21.36,-7.45 -21.06,-17.57 0.93,-31.88 70.35,-19.73 71.84,-70.98 0.75,-25.93 -21.38,-44.2 -50.19,-45.04 -16.71,-0.48 -30.48,3.73 -46.06,17.37 -1.81,1.49 -2.98,3.88 -3.05,6.29 -0.05,1.75 0.56,3.54 1.84,4.9 l 7.03,7.91">
            </path>
            <path id="path44" style="fill:#22356b;fill-opacity:1;fill-rule:nonzero;stroke:none"
                d="m 1476.31,2346.78 c -0.61,-4.36 -4.84,-7.54 -9.19,-6.94 l -10.45,1.47 c -4.36,0.6 -7.56,4.82 -6.93,9.18 l 7.96,57.08 -69.7,9.74 -7.98,-57.08 c -0.62,-4.35 -4.84,-7.53 -9.19,-6.93 l -10.68,1.49 c -4.36,0.61 -7.53,4.84 -6.93,9.18 l 19.06,136.39 c 0.61,4.35 4.83,7.54 9.19,6.93 l 10.67,-1.5 c 4.35,-0.61 7.56,-4.81 6.93,-9.18 l -7.58,-54.24 69.72,-9.74 7.59,54.23 c 0.6,4.37 4.82,7.55 9.18,6.94 l 10.46,-1.46 c 4.35,-0.62 7.55,-4.83 6.93,-9.2 l -19.06,-136.36">
            </path>
            <path id="path46" style="fill:#22356b;fill-opacity:1;fill-rule:nonzero;stroke:none"
                d="m 1583.64,2333.43 c 30.96,-9.34 56.35,7.81 65.12,36.88 9.22,30.54 -6.06,58.36 -33.87,66.74 -28.21,8.52 -55.69,-6.41 -64.9,-36.95 -8.91,-29.49 6.05,-58.35 33.65,-66.67 z m 38.57,127.84 c 43.8,-13.22 67.78,-53.3 53.93,-99.22 -13.34,-44.22 -55.99,-66.05 -99.8,-52.85 -43.81,13.22 -67.58,53.24 -53.73,99.16 12.91,42.76 54.31,66.57 99.6,52.91">
            </path>
            <path id="path48" style="fill:#22356b;fill-opacity:1;fill-rule:nonzero;stroke:none"
                d="m 1690.15,2309.46 c 2.32,0.87 4.2,0.75 6,-0.07 2,-0.91 3.64,-2.61 4.62,-4.74 5.65,-11.51 12.54,-19.23 20.35,-22.77 11.62,-5.28 23.07,-3.48 27.88,7.14 12.56,27.65 -54.05,49.67 -33.31,95.36 9.55,21.02 33.99,31.19 61.23,18.82 12.82,-5.82 21.66,-12.97 29.55,-23.8 1.65,-2.19 1.88,-5.44 0.7,-8.04 -0.56,-1.2 -1.5,-2.22 -2.55,-2.96 l -6.82,-4.88 c -2.77,-1.87 -5.82,-2.19 -8.42,-1 -1.21,0.55 -2.32,1.29 -3.24,2.43 -5.78,6.98 -11.66,11.59 -17.67,14.31 -12.22,5.54 -22.46,2.7 -26.64,-6.52 -13.19,-29.05 54.51,-48.66 33.32,-95.34 -10.75,-23.65 -38.66,-30.3 -64.9,-18.4 -15.22,6.92 -25.73,16.76 -33.74,35.86 -0.96,2.14 -0.96,4.81 0.03,7 0.73,1.6 2.06,2.94 3.81,3.59 l 9.8,4.01">
            </path>
            <path id="path50" style="fill:#22356b;fill-opacity:1;fill-rule:nonzero;stroke:none"
                d="m 1847.1,2283.16 c 5.14,-3.82 10.58,-7.57 15.87,-10.74 13.78,-8.22 28.5,-8.03 37.28,6.7 8.24,13.8 3.78,25.67 -12.08,35.14 -4.72,2.81 -10.5,5.99 -16.85,9.53 z m 77.6,-18.86 c -13.4,-22.48 -42.39,-32.87 -73.93,-14.05 -3.96,2.37 -11.52,6.87 -16.85,10.82 l -24.34,-40.82 c -2.26,-3.77 -7.38,-5.07 -11.15,-2.81 l -9.27,5.51 c -3.78,2.26 -5.07,7.38 -2.82,11.17 l 70.52,118.26 c 2.26,3.77 7.19,5.19 11.16,2.82 9.57,-5.43 23.65,-13.59 30.84,-17.88 38.91,-23.2 38.81,-51.3 25.84,-73.02">
            </path>
            <path id="path52" style="fill:#22356b;fill-opacity:1;fill-rule:nonzero;stroke:none"
                d="m 1922.26,2146.15 c -2.6,-3.56 -7.82,-4.37 -11.38,-1.79 l -8.71,6.34 c -3.57,2.59 -4.38,7.82 -1.79,11.37 l 81.05,111.31 c 2.58,3.55 7.81,4.37 11.36,1.8 l 8.72,-6.35 c 3.56,-2.59 4.37,-7.81 1.78,-11.37 l -81.03,-111.31">
            </path>
            <path id="path54" style="fill:#22356b;fill-opacity:1;fill-rule:nonzero;stroke:none"
                d="m 1980.95,2088.28 c -3.3,2.91 -3.66,8.18 -0.75,11.49 l 79.53,90.56 -31.4,27.58 c -3.3,2.89 -3.64,8.18 -0.74,11.48 l 5.95,6.78 c 2.9,3.3 8.17,3.64 11.49,0.74 l 83.11,-73 c 3.31,-2.89 3.65,-8.17 0.76,-11.47 l -5.96,-6.79 c -2.91,-3.31 -8.18,-3.64 -11.49,-0.75 l -31.39,27.58 -79.53,-90.57 c -2.9,-3.3 -8.18,-3.63 -11.48,-0.74 l -8.1,7.11">
            </path>
            <path id="path56" style="fill:#22356b;fill-opacity:1;fill-rule:nonzero;stroke:none"
                d="m 2106.46,2057.5 30.23,-33.45 25.6,53.37 z m -25.69,-9.28 -33.79,-12.15 c -3.65,-1.52 -7.95,-0.38 -10.6,2.56 l -5.32,5.88 c -3.38,3.75 -2.81,9.01 0.61,12.11 0.66,0.6 1.62,1.16 2.73,1.58 l 139.97,48.82 c 3.8,1.36 8.11,0.21 10.77,-2.72 l 7.08,-7.84 c 2.65,-2.92 3.36,-7.34 1.62,-10.98 l -62.7,-134.33 c -0.52,-1.05 -1.19,-1.97 -1.83,-2.56 -3.44,-3.09 -8.73,-3.13 -12.12,0.62 l -6.35,7.01 c -2.65,2.94 -3.37,7.33 -1.48,10.82 l 15.49,32.39 -44.08,48.79">
            </path>
            <path id="path58" style="fill:#22356b;fill-opacity:1;fill-rule:nonzero;stroke:none"
                d="m 2196.92,1850.43 c -3.59,-2.54 -8.81,-1.62 -11.33,1.97 l -46.03,65.54 c -2.54,3.59 -1.62,8.82 1.97,11.34 l 112.7,79.16 c 3.6,2.53 8.81,1.62 11.35,-1.98 l 6.19,-8.82 c 2.53,-3.6 1.62,-8.81 -1.98,-11.34 l -98.65,-69.3 35.16,-50.05 c 2.52,-3.6 1.61,-8.81 -1.99,-11.34 l -7.39,-5.18">
            </path>
            <path id="path60" style="fill:#22356b;fill-opacity:1;fill-rule:nonzero;stroke:none"
                d="m 82.9141,1709.39 c 1.539,4.13 6.3593,6.31 10.4726,4.78 l 112.9183,-42.23 14.64,39.15 c 1.539,4.12 6.356,6.32 10.477,4.78 l 8.449,-3.17 c 4.121,-1.54 6.32,-6.35 4.777,-10.47 l -38.761,-103.64 c -1.543,-4.13 -6.352,-6.32 -10.473,-4.77 l -8.453,3.15 c -4.121,1.55 -6.301,6.35 -4.77,10.48 l 14.645,39.14 -112.9258,42.24 c -4.1172,1.53 -6.3086,6.35 -4.7735,10.47 l 3.7774,10.09">
            </path>
            <path id="path62" style="fill:#22356b;fill-opacity:1;fill-rule:nonzero;stroke:none"
                d="m 56.8984,1545.72 c -7.3515,-31.48 11.3789,-55.74 40.9414,-62.64 31.0552,-7.26 57.8482,9.74 64.4492,38.02 6.703,28.71 -9.926,55.18 -40.984,62.42 -29.9886,7.02 -57.848,-9.74 -64.4066,-37.8 z m 130.0196,-30.38 c -10.41,-44.55 -48.891,-71.02 -95.586,-60.12 -44.9804,10.52 -69.4687,51.7 -59.0625,96.25 10.4063,44.55 48.8477,70.82 95.5395,59.91 43.484,-10.16 69.875,-49.99 59.109,-96.04">
            </path>
            <path id="path64" style="fill:#22356b;fill-opacity:1;fill-rule:nonzero;stroke:none"
                d="m 96.4883,1375.27 c -1.1875,-12.49 4.1917,-23.38 18.2067,-24.71 12.481,-1.19 19.973,7.83 21.34,22.28 0.586,6.13 0.926,12.07 0.953,16.94 l -38.7692,3.67 z m -62.2305,24.25 c -0.7969,-3.68 -2.0508,-9.98 -2.7851,-17.64 -1.7266,-18.18 5.0078,-28.77 19.4687,-30.13 12.9258,-1.23 20.4297,8.01 22.0234,24.87 l 1.8086,19.05 z m 51.2891,-51.05 c -5.3828,-14.75 -18.1172,-25.47 -38.4805,-23.54 -31.5391,2.99 -43.67187,28.9 -40.59374,61.31 1.01562,10.74 2.55078,24.51 3.94534,34.55 0.6367,4.36 4.707,7.74 9.0898,7.32 l 136.6832,-12.97 c 4.598,-0.44 7.973,-4.52 7.778,-8.92 -0.742,-10.1 -1.68,-24.59 -2.781,-36.21 -3.469,-36.58 -21.434,-48.79 -42.676,-46.78 -17.52,1.66 -27.8636,11.49 -32.9651,25.24">
            </path>
            <path id="path66" style="fill:#22356b;fill-opacity:1;fill-rule:nonzero;stroke:none"
                d="m 65.8633,1250.83 1.3125,-45.08 54.1012,24.04 z m -25.6016,9.6 -33.59764,12.67 c -3.77734,1.21 -6.308591,4.87 -6.425779,8.83 l -0.23437475,7.92 c -0.15234425,5.05 3.71484375,8.69 8.32422375,8.83 0.89062,0.02 1.99217,-0.16 3.10547,-0.57 l 138.2574,-53.63 c 3.782,-1.42 6.305,-5.1 6.422,-9.05 l 0.301,-10.56 c 0.129,-3.96 -2.18,-7.77 -5.883,-9.41 L 15.6523,1153.84 c -1.082,-0.47 -2.1757,-0.73 -3.0664,-0.74 -4.61324,-0.15 -8.67574,3.26 -8.81637,8.32 l -0.27734,9.45 c -0.11328,3.96 2.1914,7.77 5.89062,9.2 l 32.80859,14.61 -1.9297,65.75">
            </path>
            <path id="path68" style="fill:#22356b;fill-opacity:1;fill-rule:nonzero;stroke:none"
                d="m 148.18,1073.71 c -4.328,28.27 -28.035,46.46 -61.0862,41.4 -31.754,-4.87 -50.2032,-29.73 -45.4375,-60.82 1.5664,-10.22 5.6875,-18.27 11.8046,-26.24 1.1368,-1.61 1.8321,-3.27 2.0704,-4.8 0.4296,-2.83 -0.25,-5.6 -2.6368,-7.53 l -5.4882,-4.85 c -1.3516,-1.32 -3.0235,-2.01 -4.7657,-2.29 -2.3906,-0.36 -4.9453,0.36 -6.5508,2.11 -13.121,14.47 -17.7148,28.46 -19.8125,42.15 -7.12105,46.54 19.0782,83.28 66.4922,90.54 43.7035,6.69 82.7265,-15.6 90.4215,-65.83 2.063,-13.49 -0.203,-29.19 -4.781,-41.47 -0.906,-2.81 -2.808,-4.88 -5.637,-5.31 -1.308,-0.19 -2.894,0 -4.554,0.64 l -8.742,3.33 c -3.094,1.3 -4.731,3.28 -5.133,5.89 -0.235,1.53 -0.059,3.32 0.57,4.98 3.055,9.16 4.797,18.1 3.266,28.1">
            </path>
            <path id="path70" style="fill:#22356b;fill-opacity:1;fill-rule:nonzero;stroke:none"
                d="m 177.813,944.68 c -7.602,27.582 -33.266,42.871 -65.508,33.992 -30.973,-8.524 -46.4027,-35.371 -38.0394,-65.711 2.7422,-9.961 7.7813,-17.481 14.7852,-24.68 1.3164,-1.461 2.207,-3.051 2.6172,-4.531 0.7617,-2.75 0.3984,-5.602 -1.7422,-7.781 l -4.8867,-5.449 c -1.1914,-1.469 -2.7657,-2.372 -4.4688,-2.829 -2.332,-0.64 -4.9609,-0.222 -6.7539,1.321 -14.7187,12.847 -20.9062,26.187 -24.5937,39.566 -12.5,45.391 9.2421,84.934 55.4883,97.672 42.633,11.74 83.992,-5.85 97.484,-54.84 3.633,-13.16 3.215,-29.019 0.094,-41.75 -0.57,-2.89 -2.226,-5.18 -4.98,-5.941 -1.274,-0.34 -2.875,-0.328 -4.594,0.121 l -9.074,2.281 c -3.227,0.938 -5.082,2.719 -5.786,5.258 -0.41,1.48 -0.453,3.301 -0.007,5.012 1.953,9.437 2.648,18.531 -0.035,28.289">
            </path>
            <path id="path72" style="fill:#22356b;fill-opacity:1;fill-rule:nonzero;stroke:none"
                d="m 122.977,777.199 c 12.652,-29.769 42.089,-38.289 70.031,-26.429 29.359,12.492 40.941,42.031 29.586,68.769 -11.535,27.133 -40.586,38.68 -69.949,26.199 -28.344,-12.039 -40.946,-42.019 -29.668,-68.539 z m 122.902,52.223 c 17.894,-42.113 2.449,-86.203 -41.68,-104.961 -42.519,-18.07 -86.605,0.73 -104.5115,42.828 -17.8945,42.121 -2.3672,86.012 41.7735,104.77 41.102,17.48 85.91,0.91 104.418,-42.637">
            </path>
            <path id="path74" style="fill:#22356b;fill-opacity:1;fill-rule:nonzero;stroke:none"
                d="m 266.266,612.719 28.515,-41.617 36.367,55.347 z m -29.891,-6.457 -39.285,-8.422 c -4.281,-1.141 -8.891,0.781 -11.391,4.441 l -5.008,7.297 c -3.195,4.684 -1.777,10.434 2.493,13.363 0.808,0.547 1.968,1.039 3.261,1.329 l 162.539,33.199 c 4.43,0.941 9.024,-0.981 11.524,-4.629 l 6.683,-9.75 c 2.5,-3.66 2.633,-8.649 0.157,-12.43 L 277.715,491.078 c -0.742,-1.109 -1.617,-2.008 -2.434,-2.547 -4.265,-2.922 -10.144,-2.179 -13.343,2.481 l -5.985,8.738 c -2.5,3.648 -2.633,8.629 -0.012,12.211 l 22.028,33.598 -41.594,60.703">
            </path>
            <path id="path76" style="fill:#22356b;fill-opacity:1;fill-rule:nonzero;stroke:none"
                d="m 515.758,467.5 c 3.387,-3.57 3.234,-9.488 -0.34,-12.879 L 403.629,348.559 c -3.574,-3.387 -9.5,-3.227 -12.887,0.339 l -5.918,6.25 c -3.062,3.223 -3.996,7.422 -3.351,12.114 l 20.328,143.457 -80.008,-75.91 c -3.57,-3.368 -9.492,-3.219 -12.871,0.351 l -6.953,7.32 c -3.391,3.559 -3.231,9.489 0.34,12.879 l 111.796,106.063 c 3.571,3.379 9.489,3.219 12.872,-0.344 l 5.933,-6.258 c 3.047,-3.211 3.985,-7.422 3.34,-12.101 l -20.68,-143.797 80.364,76.238 c 3.574,3.379 9.484,3.231 12.879,-0.351 l 6.945,-7.309">
            </path>
            <path id="path78" style="fill:#22356b;fill-opacity:1;fill-rule:nonzero;stroke:none"
                d="m 485.215,304.871 c 6.348,-5.473 11.824,-9.66 15.144,-12.199 33.039,-25.262 66.543,-21.141 88.668,7.789 21.078,27.559 15.371,59.801 -17.269,84.758 -5.676,4.34 -10.512,7.73 -16.289,11.531 z m 104.121,102.527 c 54.734,-41.847 52.754,-90.199 25.102,-126.367 -29.45,-38.5 -79.848,-50.152 -132.051,-10.242 -6.836,5.242 -18.61,14.543 -31.172,24.449 -3.906,2.992 -4.692,8.864 -1.703,12.774 l 93.574,122.367 c 2.992,3.91 8.656,4.84 12.762,1.703 10.898,-8.031 25.465,-18.551 33.488,-24.684">
            </path>
            <path id="path80" style="fill:#22356b;fill-opacity:1;fill-rule:nonzero;stroke:none"
                d="m 732.777,125.648 c -2.011,-3.898 -7.047,-5.519 -10.961,-3.5 l -66.664,34.364 c -3.914,2.019 -5.519,7.047 -3.504,10.957 l 63.094,122.383 c 2.012,3.918 7.043,5.527 10.957,3.519 l 64.711,-33.359 c 3.906,-2.024 5.524,-7.051 3.512,-10.973 l -4.137,-8.008 c -2.015,-3.91 -7.055,-5.519 -10.969,-3.511 l -47.898,24.699 -17.531,-34.028 42.039,-21.66 c 3.902,-2.019 5.512,-7.062 3.5,-10.972 l -4.133,-8.008 c -2.02,-3.91 -7.055,-5.531 -10.965,-3.512 l -42.027,21.672 -18.25,-35.379 49.859,-25.711 c 3.914,-2.012 5.52,-7.039 3.504,-10.961 l -4.137,-8.012">
            </path>
            <path id="path82" style="fill:#22356b;fill-opacity:1;fill-rule:nonzero;stroke:none"
                d="m 842.156,151.82 c -1.644,-4.101 -6.515,-6.148 -10.593,-4.492 L 795.27,162.02 c -4.079,1.66 -6.133,6.531 -4.481,10.609 l 2.727,6.73 c 1.644,4.082 6.511,6.141 10.593,4.493 l 36.301,-14.723 c 4.063,-1.641 6.133,-6.508 4.477,-10.59 l -2.731,-6.719">
            </path>
            <path id="path84" style="fill:#22356b;fill-opacity:1;fill-rule:nonzero;stroke:none"
                d="m 957.895,173.941 c -27.411,8.098 -53.942,-5.621 -63.415,-37.679 -9.089,-30.801 5.563,-58.0511 35.719,-66.9612 9.906,-2.9219 18.946,-2.6094 28.754,-0.461 1.934,0.3321 3.75,0.2618 5.223,-0.1796 2.742,-0.8008 4.965,-2.6094 5.691,-5.5704 l 2.047,-7.0312 c 0.625,-1.7891 0.547,-3.5977 0.055,-5.2891 -0.696,-2.3007 -2.43,-4.3281 -4.703,-5.0312 -18.657,-5.7188 -33.262,-3.9297 -46.559,-0.0078 -45.129,13.3281 -67.215,52.6601 -53.641,98.6285 12.524,42.391 49.278,68.223 97.993,53.832 13.074,-3.863 26.316,-12.589 35.481,-21.953 2.16,-2.008 3.22,-4.617 2.41,-7.359 -0.37,-1.25 -1.23,-2.609 -2.51,-3.84 l -6.737,-6.5 c -2.488,-2.238 -4.976,-2.891 -7.508,-2.141 -1.472,0.454 -3.043,1.364 -4.265,2.653 -6.977,6.629 -14.328,12.019 -24.035,14.89">
            </path>
            <path id="path86" style="fill:#22356b;fill-opacity:1;fill-rule:nonzero;stroke:none"
                d="m 1034.6,30.2891 c -0.84,-4.3086 -5.23,-7.2696 -9.55,-6.418 l -10.58,2.0586 c -4.31,0.8398 -7.27,5.2305 -6.43,9.5508 L 1034.4,170.68 c 0.85,4.32 5.23,7.281 9.55,6.441 l 10.59,-2.07 c 4.32,-0.84 7.27,-5.242 6.43,-9.551 L 1034.6,30.2891">
            </path>
            <path id="path88" style="fill:#22356b;fill-opacity:1;fill-rule:nonzero;stroke:none"
                d="m 1159.31,28.6016 c 11.83,-1.0703 26.53,2.6601 32.74,7.6172 l 2.19,24.0898 -28.91,2.6523 c -4.39,0.3985 -7.77,4.461 -7.37,8.8477 l 0.82,8.9805 c 0.39,4.3906 4.46,7.7617 8.85,7.3593 l 46,-4.1992 c 4.39,-0.4101 7.77,-4.4687 7.37,-8.8398 l -4.53,-49.5196 c -0.42,-4.6015 -3.17,-8.1015 -5.98,-9.8398 -15.02,-9.67969 -37.05,-13.85156 -53.92,-12.30078 -50.17,4.58984 -77.11,38.64058 -72.74,86.40238 4.02,44.0464 36.8,76.3864 83.69,72.0974 18.84,-1.719 31.51,-5.75 44.95,-15.808 1.65,-1.262 2.55,-3.551 2.33,-5.961 -0.13,-1.309 -0.72,-3.02 -1.74,-4.481 l -5.54,-7.449 c -1.77,-2.488 -4.28,-3.359 -6.91,-3.121 -1.54,0.133 -3.25,0.742 -4.93,1.769 -7.5,4.891 -16.88,8.622 -27.17,9.551 -29.58,2.711 -53.07,-15.027 -56.2,-49.199 -2.98,-32.6406 15.89,-55.8086 47,-58.6484">
            </path>
            <path id="path90" style="fill:#22356b;fill-opacity:1;fill-rule:nonzero;stroke:none"
                d="m 1290.42,66.3984 45.06,1.961 -24.81,53.7496 z M 1281.19,40.6719 1269,6.89063 c -1.14,-3.78907 -4.78,-6.371099 -8.73,-6.539067 l -7.92,-0.3398442 c -5.05,-0.2304688 -8.74,3.5664112 -8.94,8.1875012 -0.04,0.89062 0.12,1.99218 0.52,3.12108 l 51.65,138.9807 c 1.38,3.808 5.01,6.39 8.96,6.558 l 10.55,0.45 c 3.96,0.191 7.8,-2.071 9.5,-5.739 l 63.52,-133.9802 c 0.49,-1.0898 0.76,-2.1679 0.81,-3.0507 0.19,-4.62894 -3.15,-8.73051 -8.21,-8.93754 l -9.45,-0.41015 c -3.97,-0.17969 -7.79,2.07031 -9.28,5.74999 l -15.08,32.5899 -65.71,-2.8594">
            </path>
            <path id="path92" style="fill:#22356b;fill-opacity:1;fill-rule:nonzero;stroke:none"
                d="m 1457.28,100.781 c 15.4,2.649 27.71,12.797 25.03,28.418 -2.05,11.922 -10.3,21 -31.99,17.27 -4.99,-0.86 -11.01,-2.11 -18.14,-3.559 l 7.75,-45.1092 z m 5.58,-24.7224 -18.65,-3.1992 8.39,-48.7891 c 0.75,-4.332 -2.31,-8.6484 -6.64,-9.3906 l -10.64,-1.8399 c -4.33,-0.7382 -8.65,2.3086 -9.39,6.6485 l -23.32,135.7497 c -0.76,4.344 2.09,8.621 6.64,9.403 12.97,2.449 34.63,6.39 38.08,6.988 41.43,7.109 58.62,-11.129 63.15,-37.379 4.47,-26.02 -10,-41.8984 -21.84,-48.3984 l 46.23,-42.9532 c 1.56,-1.289 2.29,-2.957 2.56,-4.4687 0.7,-4.1211 -1.91,-8.3711 -6.46,-9.1484 l -9.98,-1.711 c -3.91,-0.6914 -8.4,0.7813 -11.34,3.6289 l -46.79,44.8594">
            </path>
            <path id="path94" style="fill:#22356b;fill-opacity:1;fill-rule:nonzero;stroke:none"
                d="m 1663.67,74.6016 c 1.24,-4.2305 -1.3,-8.8711 -5.52,-10.1133 l -71.99,-21.1094 c -4.21,-1.2383 -8.86,1.293 -10.1,5.5195 l -38.77,132.1406 c -1.23,4.223 1.31,8.871 5.53,10.102 l 69.87,20.507 c 4.22,1.231 8.87,-1.308 10.11,-5.527 l 2.54,-8.652 c 1.23,-4.219 -1.31,-8.86 -5.53,-10.098 l -51.71,-15.172 10.78,-36.738 45.38,13.32 c 4.22,1.239 8.86,-1.301 10.1,-5.519 l 2.54,-8.653 c 1.23,-4.23 -1.3,-8.871 -5.52,-10.109 l -45.38,-13.309 11.21,-38.2105 53.82,15.789 c 4.23,1.2422 8.86,-1.3007 10.1,-5.5195 l 2.54,-8.6484">
            </path>
            <path id="path96" style="fill:#22356b;fill-opacity:1;fill-rule:nonzero;stroke:none"
                d="m 1744.93,97.4297 c -4.05,-1.7109 -8.94,0.2891 -10.64,4.3593 l -46.53,111.191 -38.55,-16.128 c -4.05,-1.704 -8.95,0.296 -10.65,4.359 l -3.47,8.309 c -1.7,4.058 0.31,8.96 4.36,10.671 l 102.06,42.688 c 4.06,1.703 8.95,-0.309 10.65,-4.359 l 3.47,-8.329 c 1.7,-4.05 -0.31,-8.941 -4.36,-10.652 l -38.55,-16.117 46.53,-111.184 c 1.7,-4.066 -0.32,-8.957 -4.38,-10.648 l -9.94,-4.1603">
            </path>
            <path id="path98" style="fill:#22356b;fill-opacity:1;fill-rule:nonzero;stroke:none"
                d="m 1878.23,162.051 c -3.83,-2.18 -8.92,-0.75 -11.08,3.078 l -59.41,104.941 -36.38,-20.609 c -3.83,-2.172 -8.93,-0.742 -11.1,3.09 l -4.43,7.84 c -2.17,3.839 -0.76,8.937 3.07,11.097 l 96.32,54.524 c 3.83,2.16 8.92,0.758 11.1,-3.071 l 4.44,-7.851 c 2.17,-3.828 0.75,-8.93 -3.08,-11.102 l -36.38,-20.59 59.39,-104.937 c 2.18,-3.84 0.75,-8.941 -3.06,-11.109 l -9.4,-5.301">
            </path>
            <path id="path100" style="fill:#22356b;fill-opacity:1;fill-rule:nonzero;stroke:none"
                d="m 2035.71,275.68 c 2.57,-3.559 1.74,-8.789 -1.82,-11.371 l -60.79,-44.008 c -3.56,-2.582 -8.79,-1.742 -11.37,1.828 l -80.78,111.59 c -2.58,3.57 -1.74,8.793 1.82,11.371 l 59.01,42.711 c 3.56,2.578 8.78,1.738 11.37,-1.813 l 5.29,-7.308 c 2.58,-3.571 1.74,-8.801 -1.83,-11.379 l -43.67,-31.61 22.46,-31.011 38.32,27.73 c 3.57,2.578 8.79,1.75 11.37,-1.808 l 5.29,-7.313 c 2.58,-3.57 1.75,-8.801 -1.82,-11.367 l -38.33,-27.75 23.35,-32.274 45.47,32.911 c 3.56,2.582 8.79,1.742 11.37,-1.821 l 5.29,-7.308">
            </path>
            <path id="path102" style="fill:#22356b;fill-opacity:1;fill-rule:nonzero;stroke:none"
                d="m 2128.2,357.238 c 3.08,-3.168 3.02,-8.437 -0.14,-11.508 l -7.72,-7.539 c -3.14,-3.062 -8.44,-3 -11.5,0.161 l -96.14,98.57 c -3.06,3.168 -3,8.449 0.16,11.527 l 51.33,50.063 c 3.15,3.058 8.44,2.988 11.5,-0.153 l 6.31,-6.461 c 3.07,-3.148 3,-8.429 -0.15,-11.507 l -37.8,-36.852 30.41,-31.187 33.07,32.25 c 3.16,3.07 8.45,3.007 11.5,-0.141 l 6.31,-6.461 c 3.07,-3.148 3.01,-8.441 -0.15,-11.52 l -33.07,-32.23 36.08,-37.012">
            </path>
            <path id="path104" style="fill:#22356b;fill-opacity:1;fill-rule:nonzero;stroke:none"
                d="m 2169.46,511.359 c 9.9,12.082 12.57,27.821 0.32,37.852 -9.34,7.668 -21.53,9.129 -35.47,-7.871 -3.21,-3.91 -6.96,-8.82 -11.38,-14.57 l 35.38,-29.02 z m 20.39,-15.007 -11.99,-14.633 38.26,-31.379 c 3.4,-2.789 3.93,-8.059 1.14,-11.461 l -6.84,-8.328 c -2.79,-3.391 -8.05,-3.922 -11.46,-1.129 l -106.44,87.308 c -3.41,2.79 -4.07,7.891 -1.14,11.461 8.2,10.34 21.97,27.481 24.21,30.207 26.65,32.481 51.59,29.954 72.15,13.051 20.41,-16.73 19.89,-38.187 15.2,-50.84 l 63.03,-2.218 c 2.03,0.058 3.67,-0.719 4.86,-1.7 3.24,-2.66 4.02,-7.57 1.1,-11.152 l -6.41,-7.82 c -2.51,-3.059 -6.87,-4.891 -10.95,-4.68 l -64.72,3.313">
            </path>
            <path id="path106" style="fill:#22356b;fill-opacity:1;fill-rule:nonzero;stroke:none"
                d="m 2342.63,626.379 c 3.71,-2.391 4.82,-7.559 2.43,-11.25 L 2304.4,552.09 c -2.38,-3.699 -7.55,-4.809 -11.25,-2.43 l -115.72,74.629 c -3.71,2.383 -4.81,7.551 -2.42,11.25 l 39.45,61.191 c 2.39,3.7 7.56,4.809 11.25,2.43 l 7.58,-4.89 c 3.7,-2.391 4.81,-7.551 2.43,-11.25 l -29.21,-45.301 32.17,-20.739 25.64,39.75 c 2.37,3.692 7.54,4.809 11.25,2.43 l 7.57,-4.89 c 3.71,-2.391 4.82,-7.551 2.44,-11.25 l -25.64,-39.75 33.46,-21.579 30.4,47.149 c 2.38,3.691 7.56,4.82 11.25,2.422 l 7.58,-4.883">
            </path>
            <path id="path108" style="fill:#22356b;fill-opacity:1;fill-rule:nonzero;stroke:none"
                d="m 2405.38,747.391 c 3.93,-1.969 5.61,-6.981 3.63,-10.922 l -33.51,-67.11 c -1.98,-3.937 -6.98,-5.621 -10.92,-3.648 l -123.22,61.539 c -3.93,1.961 -5.61,6.98 -3.65,10.91 l 32.55,65.149 c 1.96,3.953 6.98,5.632 10.92,3.652 l 8.06,-4.02 c 3.93,-1.972 5.61,-6.992 3.65,-10.941 l -24.09,-48.211 34.26,-17.109 21.13,42.32 c 1.97,3.941 6.97,5.621 10.92,3.648 l 8.06,-4.027 c 3.95,-1.973 5.63,-6.992 3.66,-10.922 l -21.14,-42.32 35.63,-17.789 25.06,50.191 c 1.97,3.93 6.99,5.61 10.91,3.649 l 8.09,-4.039">
            </path>
            <path id="path110" style="fill:#22356b;fill-opacity:1;fill-rule:nonzero;stroke:none"
                d="m 2344.82,938.801 c -8.58,-27.289 4.67,-54.063 36.58,-64.102 30.64,-9.64 58.16,4.531 67.61,34.551 3.11,9.852 2.95,18.898 0.98,28.75 -0.31,1.941 -0.21,3.762 0.26,5.219 0.85,2.73 2.7,4.91 5.68,5.601 l 7.07,1.93 c 1.79,0.59 3.61,0.469 5.29,-0.059 2.31,-0.722 4.28,-2.5 4.94,-4.781 5.41,-18.769 3.35,-33.351 -0.81,-46.558 -14.13,-44.93 -53.86,-66.332 -99.61,-51.942 -42.2,13.281 -67.39,50.512 -52.13,98.988 4.09,13 13.07,26.114 22.59,35.114 2.05,2.109 4.68,3.129 7.4,2.269 1.26,-0.39 2.6,-1.269 3.81,-2.57 l 6.38,-6.852 c 2.2,-2.531 2.79,-5.031 2,-7.55 -0.46,-1.469 -1.41,-3.02 -2.71,-4.219 -6.77,-6.871 -12.29,-14.129 -15.33,-23.789">
            </path>
            <path id="path112" style="fill:#22356b;fill-opacity:1;fill-rule:nonzero;stroke:none"
                d="m 2435.15,1026.47 7.98,44.4 -57.89,-12.39 z m 23.07,-14.64 30.27,-19.299 c 3.45,-1.972 5.17,-6.082 4.47,-9.98 l -1.41,-7.781 c -0.9,-4.989 -5.41,-7.75 -9.95,-6.93 -0.87,0.148 -1.91,0.57 -2.92,1.191 l -124.24,80.899 c -3.42,2.18 -5.13,6.29 -4.43,10.19 l 1.86,10.4 c 0.71,3.88 3.74,7.15 7.71,8 l 144.65,32.53 c 1.16,0.25 2.28,0.27 3.14,0.11 4.55,-0.82 7.83,-4.98 6.94,-9.96 l -1.68,-9.32 c -0.71,-3.88 -3.75,-7.14 -7.66,-7.77 l -35.11,-7.55 -11.64,-64.73">
            </path>
            <path id="path114" style="fill:#22356b;fill-opacity:1;fill-rule:nonzero;stroke:none"
                d="m 2512.88,1176.71 c 4.39,-0.12 8.03,-3.97 7.91,-8.36 l -0.29,-10.76 c -0.13,-4.41 -3.97,-8.05 -8.37,-7.91 l -137.65,3.75 c -4.39,0.11 -8.03,3.96 -7.91,8.36 l 0.35,12.54 c 0.1,3.95 2.43,8.06 5.78,10.41 l 67.74,46.75 -65.14,48.23 c -3.24,2.28 -5.32,6.52 -5.21,10.48 l 0.29,10.77 c 0.12,4.4 3.97,8.03 8.36,7.93 l 137.65,-3.77 c 4.38,-0.13 8.03,-3.97 7.91,-8.36 l -0.29,-10.57 c -0.12,-4.39 -3.96,-8.03 -8.36,-7.91 l -103.12,2.82 55.41,-41.78 c 3.87,-2.96 5.75,-6.75 5.64,-10.49 -0.09,-3.73 -2.18,-7.64 -6.21,-10.39 l -56.96,-38.94 102.47,-2.8">
            </path>
            <path id="path116" style="fill:#22356b;fill-opacity:1;fill-rule:nonzero;stroke:none"
                d="m 2435.87,1378.43 c -0.08,6.41 -0.39,13.02 -1.1,19.14 -1.83,15.95 -10.91,27.52 -27.96,25.56 -15.96,-1.83 -22.69,-12.57 -20.58,-30.92 0.63,-5.46 1.61,-12.01 2.65,-19.19 z m -32.11,73.13 c 26,3 51.84,-13.74 56.03,-50.22 0.53,-4.59 1.55,-13.33 1.64,-19.96 l 47.19,5.43 c 4.38,0.5 8.52,-2.79 9.03,-7.15 l 1.23,-10.71 c 0.5,-4.37 -2.79,-8.51 -7.15,-9.02 l -136.8,-15.74 c -4.36,-0.51 -8.49,2.56 -9,7.15 -1.49,10.9 -3.58,27.05 -4.51,35.35 -5.2,45.02 17.2,61.98 42.34,64.87">
            </path>
            <path id="path118" style="fill:#22356b;fill-opacity:1;fill-rule:nonzero;stroke:none"
                d="m 2335.57,1566.02 c -4.27,-1.06 -8.8,1.68 -9.86,5.94 l -2.53,10.27 c -1.04,4.26 1.69,8.79 5.95,9.85 l 79.7,19.65 c 45.71,11.29 71.2,-12.11 78.95,-43.52 9.17,-37.17 -6.31,-69.09 -50.1,-79.9 l -78.19,-19.28 c -4.27,-1.05 -8.8,1.68 -9.84,5.95 l -2.59,10.48 c -1.05,4.26 1.68,8.79 5.96,9.84 l 72.63,17.92 c 27.99,6.91 43.95,23.08 37.56,48.93 -5.58,22.65 -24.24,29.38 -53.3,22.21 l -74.34,-18.34">
            </path>
            <path id="path120" style="fill:#22356b;fill-opacity:1;fill-rule:nonzero;stroke:none"
                d="m 2421.67,1661.74 c -2.29,1.02 -3.52,2.43 -4.22,4.28 -0.79,2.05 -0.74,4.43 0.07,6.62 4.07,12.16 4.62,22.49 1.57,30.5 -4.54,11.93 -13.94,18.7 -24.84,14.56 -28.4,-10.81 3.43,-73.34 -43.48,-91.19 -21.58,-8.22 -46.1,1.75 -56.76,29.73 -5,13.16 -6.25,24.46 -4.23,37.71 0.39,2.72 2.51,5.18 5.18,6.21 1.24,0.47 2.63,0.52 3.9,0.3 l 8.26,-1.32 c 3.31,-0.63 5.68,-2.55 6.7,-5.23 0.47,-1.23 0.74,-2.54 0.58,-4.02 -0.8,-9.01 0.14,-16.42 2.48,-22.59 4.79,-12.54 14.06,-17.73 23.52,-14.12 29.81,11.34 -4.46,72.93 43.46,91.18 24.27,9.23 48.78,-5.69 59.04,-32.63 5.95,-15.63 6.47,-30.02 -1.27,-49.22 -0.82,-2.19 -2.7,-4.08 -4.95,-4.94 -1.65,-0.63 -3.53,-0.64 -5.24,0.13 l -9.77,4.04">
            </path>
            <path id="path122" style="fill:#ed1c24;fill-opacity:1;fill-rule:nonzero;stroke:none"
                d="m 1254.86,557.602 c -392.18,0 -710.098,317.918 -710.098,710.088 0,392.18 317.918,710.1 710.098,710.1 392.17,0 710.09,-317.92 710.09,-710.1 0,-392.17 -317.92,-710.088 -710.09,-710.088 z m 0,1611.288 c -497.723,0 -901.2,-403.48 -901.2,-901.2 0,-497.721 403.477,-901.202 901.2,-901.202 497.72,0 901.19,403.481 901.19,901.202 0,497.72 -403.47,901.2 -901.19,901.2">
            </path>
            <path id="path124" style="fill:#ed1c24;fill-opacity:1;fill-rule:nonzero;stroke:none"
                d="M 1762.94,542.422 556.707,1748.66 711.09,1903.04 1917.32,696.809 1762.94,542.422">
            </path>
            <path id="path126" style="fill:#6ac7ed;fill-opacity:1;fill-rule:nonzero;stroke:none"
                d="m 245.246,1807.02 c 0,-15.2 -12.32,-27.52 -27.523,-27.52 -15.2,0 -27.52,12.32 -27.52,27.52 0,15.2 12.32,27.53 27.52,27.53 15.203,0 27.523,-12.33 27.523,-27.53">
            </path>
            <path id="path128" style="fill:#6ac7ed;fill-opacity:1;fill-rule:nonzero;stroke:none"
                d="m 2330.38,1807.02 c 0,-15.2 -12.32,-27.52 -27.52,-27.52 -15.2,0 -27.53,12.32 -27.53,27.52 0,15.2 12.33,27.53 27.53,27.53 15.2,0 27.52,-12.33 27.52,-27.53">
            </path>
        </g>
    </g>
</svg>